<svg width="24" height="24" viewBox="0 0 24 24" fill="none" xmlns="http://www.w3.org/2000/svg">
<path d="M2.00098 16C2.00098 13.6611 2.00098 12.4917 2.53744 11.6379C2.81719 11.1927 3.19365 10.8162 3.63886 10.5365C4.49264 10 5.66209 10 8.00098 10H16.001C18.3399 10 19.5093 10 20.3631 10.5365C20.8083 10.8162 21.1848 11.1927 21.4645 11.6379C22.001 12.4917 22.001 13.6611 22.001 16C22.001 18.3389 22.001 19.5083 21.4645 20.3621C21.1848 20.8073 20.8083 21.1838 20.3631 21.4635C19.5093 22 18.3399 22 16.001 22H8.00098C5.66209 22 4.49264 22 3.63886 21.4635C3.19365 21.1838 2.81719 20.8073 2.53744 20.3621C2.00098 19.5083 2.00098 18.3389 2.00098 16Z" stroke="#DC6803" stroke-width="1.5" stroke-linecap="round" stroke-linejoin="round"/>
<path d="M20 9.99999C20 8.59986 20 7.89979 19.7275 7.36501C19.4878 6.89461 19.1054 6.51216 18.635 6.27247C18.1002 5.99999 17.4001 5.99999 16 5.99999H8C6.59987 5.99999 5.8998 5.99999 5.36502 6.27247C4.89462 6.51216 4.51217 6.89461 4.27248 7.36501C4 7.89979 4 8.59986 4 9.99999" stroke="#DC6803" stroke-width="1.5" stroke-linecap="round" stroke-linejoin="round"/>
<path d="M18.0005 5.99998C18.0005 4.11436 18.0005 3.17155 17.4147 2.58576C16.8289 1.99998 15.8861 1.99998 14.0005 1.99998H10.0005C8.11487 1.99998 7.17206 1.99998 6.58627 2.58576C6.00049 3.17155 6.00049 4.11436 6.00049 5.99998" stroke="#DC6803" stroke-width="1.5" stroke-linecap="round" stroke-linejoin="round"/>
<path d="M15.0005 14C15.0005 15.1045 14.1051 16 13.0005 16H11.0005C9.89592 16 9.00049 15.1045 9.00049 14" stroke="#DC6803" stroke-width="1.5" stroke-linecap="round"/>
</svg>
