<svg width="34" height="34" viewBox="0 0 34 34" fill="none" xmlns="http://www.w3.org/2000/svg">
<g clip-path="url(#clip0_99_391)">
<circle cx="17" cy="17" r="16" stroke="#FDFDFD" stroke-width="2"/>
<path d="M17.293 26.2461C15.7148 26.2461 14.3008 25.8984 13.0508 25.2031C11.8008 24.5 10.8125 23.4805 10.0859 22.1445C9.36719 20.8086 9.00781 19.1875 9.00781 17.2812C9.00781 15.3594 9.37109 13.7305 10.0977 12.3945C10.832 11.0586 11.8242 10.043 13.0742 9.34766C14.3242 8.64453 15.7305 8.29297 17.293 8.29297C18.332 8.29297 19.2969 8.44141 20.1875 8.73828C21.0781 9.02734 21.8633 9.44922 22.543 10.0039C23.2227 10.5586 23.7773 11.2344 24.207 12.0312C24.6367 12.8281 24.9141 13.7344 25.0391 14.75H20.8438C20.7734 14.3125 20.6406 13.9219 20.4453 13.5781C20.25 13.2266 20.0039 12.9297 19.707 12.6875C19.4102 12.4453 19.0664 12.2617 18.6758 12.1367C18.2852 12.0039 17.8555 11.9375 17.3867 11.9375C16.5273 11.9375 15.7852 12.1484 15.1602 12.5703C14.543 12.9922 14.0664 13.6016 13.7305 14.3984C13.4023 15.1953 13.2383 16.1562 13.2383 17.2812C13.2383 18.4297 13.4062 19.4023 13.7422 20.1992C14.0781 20.9883 14.5547 21.5859 15.1719 21.9922C15.7891 22.3984 16.5234 22.6016 17.375 22.6016C17.8438 22.6016 18.2695 22.5391 18.6523 22.4141C19.043 22.2812 19.3906 22.0938 19.6953 21.8516C20 21.6094 20.25 21.3164 20.4453 20.9727C20.6406 20.6211 20.7773 20.2305 20.8555 19.8008H25.0508C24.9648 20.6289 24.7266 21.4258 24.3359 22.1914C23.9531 22.957 23.4297 23.6484 22.7656 24.2656C22.1094 24.875 21.3203 25.3594 20.3984 25.7188C19.4844 26.0703 18.4492 26.2461 17.293 26.2461Z" fill="#FDFDFD"/>
</g>
<defs>
<clipPath id="clip0_99_391">
<rect width="34" height="34" fill="white"/>
</clipPath>
</defs>
</svg>
