<svg width="386" height="212" viewBox="0 0 386 212" fill="none" xmlns="http://www.w3.org/2000/svg">
<path d="M0 15.9724C0 7.1511 7.15111 0 15.9724 0H173.056C181.878 0 189.029 7.15111 189.029 15.9724V106H0V15.9724Z" fill="#FCCEEE"/>
<path d="M0 106H189.029V196.028C189.029 204.849 181.878 212 173.056 212H15.9724C7.15111 212 0 204.849 0 196.028V106Z" fill="#B9E6FE"/>
<path d="M196.971 15.9724C196.971 7.1511 204.122 0 212.944 0H291.486V106H196.971V15.9724Z" fill="#FCCEEE"/>
<path d="M386 15.9724C386 7.1511 378.849 0 370.028 0H291.486V106H386V15.9724Z" fill="#B9E6FE"/>
<path d="M196.971 106H386V196.028C386 204.849 378.849 212 370.028 212H212.944C204.122 212 196.971 204.849 196.971 196.028V106Z" fill="#FEDF89"/>
</svg>
