<svg width="24" height="24" viewBox="0 0 24 24" fill="none" xmlns="http://www.w3.org/2000/svg">
<path d="M19.5 5.5L18.8803 15.5251C18.7219 18.0864 18.6428 19.3671 18.0008 20.2879C17.6833 20.7431 17.2747 21.1273 16.8007 21.416C15.8421 22 14.559 22 11.9927 22C9.42312 22 8.1383 22 7.17905 21.4149C6.7048 21.1257 6.296 20.7408 5.97868 20.2848C5.33688 19.3626 5.25945 18.0801 5.10461 15.5152L4.5 5.5" stroke="#F04438" stroke-width="1.5" stroke-linecap="round"/>
<path d="M3 5.49999H21M16.0557 5.49999L15.3731 4.09172C14.9196 3.15625 14.6928 2.68851 14.3017 2.39679C14.215 2.33209 14.1231 2.27453 14.027 2.22469C13.5939 1.99999 13.0741 1.99999 12.0345 1.99999C10.9688 1.99999 10.436 1.99999 9.99568 2.23411C9.8981 2.286 9.80498 2.34588 9.71729 2.41316C9.32164 2.71669 9.10063 3.20154 8.65861 4.17125L8.05292 5.49999" stroke="#F04438" stroke-width="1.5" stroke-linecap="round"/>
<path d="M9.50049 16.5L9.50049 10.5" stroke="#F04438" stroke-width="1.5" stroke-linecap="round"/>
<path d="M14.4995 16.5L14.4995 10.5" stroke="#F04438" stroke-width="1.5" stroke-linecap="round"/>
</svg>
