<svg width="24" height="24" viewBox="0 0 24 24" fill="none" xmlns="http://www.w3.org/2000/svg">
<path d="M21.6334 12.1873C21.6334 11.3679 21.5669 10.77 21.423 10.1499H12.0664V13.8482H17.5585C17.4479 14.7673 16.8499 16.1514 15.5211 17.0815L15.5025 17.2053L18.4609 19.4972L18.6659 19.5176C20.5482 17.7791 21.6334 15.2213 21.6334 12.1873Z" fill="#4285F4"/>
<path d="M12.0662 21.9312C14.7569 21.9312 17.0158 21.0453 18.6657 19.5173L15.521 17.0812C14.6795 17.6681 13.55 18.0777 12.0662 18.0777C9.4309 18.0777 7.19418 16.3393 6.39686 13.9365L6.27999 13.9464L3.2038 16.3271L3.16357 16.439C4.80235 19.6944 8.16854 21.9312 12.0662 21.9312Z" fill="#34A853"/>
<path d="M6.39685 13.9368C6.18646 13.3167 6.06471 12.6523 6.06471 11.9658C6.06471 11.2793 6.18646 10.6149 6.38578 9.99484L6.3802 9.86278L3.26547 7.44385L3.16356 7.49232C2.48814 8.84324 2.10059 10.3603 2.10059 11.9658C2.10059 13.5714 2.48814 15.0884 3.16356 16.4393L6.39685 13.9368Z" fill="#FBBC05"/>
<path d="M12.0662 5.85336C13.9375 5.85336 15.1998 6.66168 15.9196 7.33718L18.7321 4.59107C17.0048 2.9855 14.7569 2 12.0662 2C8.16854 2 4.80235 4.23672 3.16357 7.49214L6.38579 9.99466C7.19418 7.59183 9.4309 5.85336 12.0662 5.85336Z" fill="#EB4335"/>
</svg>
