<svg width="24" height="24" viewBox="0 0 24 24" fill="none" xmlns="http://www.w3.org/2000/svg">
<path d="M10.3755 2.72207L5.3777 4.94333C3.93208 5.58583 2.97809 7.02467 3.07008 8.60396C3.42971 14.7782 5.23776 17.4963 9.93588 20.677C11.1805 21.5196 12.821 21.5217 14.0647 20.6777C18.7773 17.4797 20.5206 14.7231 20.9119 8.62535C21.0139 7.03561 20.0583 5.5815 18.6026 4.93452L13.6246 2.72207C12.5904 2.2624 11.4098 2.2624 10.3755 2.72207Z" stroke="#28303F" stroke-width="1.5"/>
<path d="M15.0001 12C15.0001 13.6569 13.6569 15 12.0001 15C10.3432 15 9.00008 13.6569 9.00008 12C9.00008 10.3432 10.3432 9.00005 12.0001 9.00005C13.6569 9.00005 15.0001 10.3432 15.0001 12Z" stroke="#28303F" stroke-width="1.5"/>
</svg>
