<svg width="338" height="96" viewBox="0 0 338 96" fill="none" xmlns="http://www.w3.org/2000/svg">
<line x1="130.984" y1="22.4699" x2="130.984" y2="73.4819" stroke="#EE46BC" stroke-width="9.36" stroke-linecap="round"/>
<line x1="144.556" y1="4.45187" x2="144.556" y2="91.4999" stroke="#0BA5EC" stroke-width="8.424" stroke-linecap="round"/>
<line x1="158.596" y1="17.7899" x2="158.596" y2="78.1619" stroke="#FEDF89" stroke-width="8.424" stroke-linecap="round"/>
<line x1="172.636" y1="31.1279" x2="172.636" y2="64.8239" stroke="#EE46BC" stroke-width="8.424" stroke-linecap="round"/>
<line x1="186.676" y1="31.1279" x2="186.676" y2="64.8239" stroke="#EE46BC" stroke-width="8.424" stroke-linecap="round"/>
<line x1="200.716" y1="10.068" x2="200.716" y2="85.884" stroke="#0BA5EC" stroke-width="8.424" stroke-linecap="round"/>
<line x1="214.756" y1="21.2999" x2="214.756" y2="74.6519" stroke="#EE46BC" stroke-width="8.424" stroke-linecap="round"/>
<line x1="228.796" y1="22.0019" x2="228.796" y2="73.9499" stroke="#0BA5EC" stroke-width="8.424" stroke-linecap="round"/>
<line x1="242.836" y1="4.45187" x2="242.836" y2="91.4999" stroke="#EE46BC" stroke-width="8.424" stroke-linecap="round"/>
<line x1="256.876" y1="17.7899" x2="256.876" y2="78.1619" stroke="#FEDF89" stroke-width="8.424" stroke-linecap="round"/>
<line x1="270.916" y1="31.1279" x2="270.916" y2="64.8239" stroke="#EE46BC" stroke-width="8.424" stroke-linecap="round"/>
<line x1="284.956" y1="31.1279" x2="284.956" y2="64.8239" stroke="#FEDF89" stroke-width="8.424" stroke-linecap="round"/>
<line x1="298.996" y1="10.068" x2="298.996" y2="85.884" stroke="#EE46BC" stroke-width="8.424" stroke-linecap="round"/>
<line x1="313.036" y1="21.2999" x2="313.036" y2="74.6519" stroke="#EE46BC" stroke-width="8.424" stroke-linecap="round"/>
<line x1="327.076" y1="38.1479" x2="327.076" y2="57.8039" stroke="#0BA5EC" stroke-width="8.424" stroke-linecap="round"/>
<path d="M3.76594 33.8891V28.0391H31.5534V33.8891H21.1788V62.0879H14.1863V33.8891H3.76594ZM42.7736 47.6V62.0879H35.9638V28.0391H42.6822V43.2125H41.9738C42.6593 41.0797 43.6876 39.4268 45.0587 38.2537C46.445 37.0807 48.2199 36.4941 50.3831 36.4941C52.1351 36.4941 53.6661 36.875 54.9763 37.6367C56.2865 38.3984 57.2995 39.4953 58.0156 40.9273C58.7468 42.3594 59.1124 44.0809 59.1124 46.0918V62.0879H52.2798V47.3029C52.2798 45.7033 51.8761 44.4617 51.0687 43.5781C50.2613 42.6793 49.1339 42.2299 47.6866 42.2299C46.7269 42.2299 45.8738 42.4432 45.1273 42.8697C44.396 43.2811 43.8171 43.8828 43.3906 44.675C42.9792 45.4672 42.7736 46.4422 42.7736 47.6ZM76.1368 62.5906C73.5622 62.5906 71.338 62.0574 69.4642 60.991C67.6056 59.9246 66.1659 58.4164 65.1452 56.4664C64.1398 54.5164 63.637 52.2236 63.637 49.5881C63.637 46.983 64.1398 44.7055 65.1452 42.7555C66.1507 40.7902 67.5675 39.2592 69.3956 38.1623C71.2238 37.0502 73.3642 36.4941 75.8169 36.4941C77.5079 36.4941 79.0771 36.7684 80.5243 37.3168C81.9716 37.8652 83.2361 38.6803 84.3177 39.7619C85.4146 40.8283 86.2601 42.1689 86.8542 43.7838C87.4636 45.3834 87.7683 47.2344 87.7683 49.3367V51.2334H66.3564V46.9373H84.4548L81.2784 48.057C81.2784 46.7469 81.0728 45.6119 80.6615 44.6521C80.2501 43.6924 79.6408 42.9535 78.8333 42.4355C78.0411 41.9023 77.0585 41.6357 75.8855 41.6357C74.7124 41.6357 73.7146 41.9023 72.8919 42.4355C72.0693 42.9687 71.437 43.7 70.9952 44.6293C70.5687 45.5586 70.3554 46.625 70.3554 47.8285V50.8449C70.3554 52.2617 70.5992 53.4652 71.0867 54.4555C71.5742 55.4457 72.2597 56.1998 73.1433 56.7178C74.0421 57.2205 75.0857 57.4719 76.274 57.4719C77.0814 57.4719 77.8126 57.3576 78.4677 57.1291C79.138 56.8854 79.7017 56.5426 80.1587 56.1008C80.631 55.6437 80.989 55.0877 81.2327 54.4326L87.4255 55.3238C87.0294 56.7863 86.3134 58.066 85.2775 59.1629C84.2568 60.2445 82.9695 61.09 81.4156 61.6994C79.8769 62.2936 78.1173 62.5906 76.1368 62.5906ZM92.2243 62.0879V36.8598H98.8284V41.2244H99.057C99.514 39.6857 100.276 38.5279 101.342 37.751C102.409 36.9588 103.673 36.5627 105.135 36.5627C105.501 36.5627 105.882 36.5779 106.278 36.6084C106.674 36.6389 107.017 36.6846 107.306 36.7455V42.7783C107.017 42.6869 106.583 42.6184 106.004 42.5727C105.44 42.5117 104.892 42.4812 104.359 42.4812C103.353 42.4812 102.439 42.7021 101.616 43.1439C100.809 43.5857 100.177 44.2104 99.7197 45.0178C99.2626 45.8252 99.0341 46.7773 99.0341 47.8742V62.0879H92.2243Z" fill="#0A0D12"/>
<path d="M121.429 62.5906C118.854 62.5906 116.63 62.0574 114.756 60.991C112.897 59.9246 111.458 58.4164 110.437 56.4664C109.432 54.5164 108.929 52.2236 108.929 49.5881C108.929 46.983 109.432 44.7055 110.437 42.7555C111.443 40.7902 112.859 39.2592 114.687 38.1623C116.516 37.0502 118.656 36.4941 121.109 36.4941C122.8 36.4941 124.369 36.7684 125.816 37.3168C127.263 37.8652 128.528 38.6803 129.61 39.7619C130.706 40.8283 131.552 42.1689 132.146 43.7838C132.755 45.3834 133.06 47.2344 133.06 49.3367V51.2334H111.648V46.9373H129.747L126.57 48.057C126.57 46.7469 126.365 45.6119 125.953 44.6521C125.542 43.6924 124.933 42.9535 124.125 42.4355C123.333 41.9023 122.35 41.6357 121.177 41.6357C120.004 41.6357 119.006 41.9023 118.184 42.4355C117.361 42.9687 116.729 43.7 116.287 44.6293C115.86 45.5586 115.647 46.625 115.647 47.8285V50.8449C115.647 52.2617 115.891 53.4652 116.378 54.4555C116.866 55.4457 117.551 56.1998 118.435 56.7178C119.334 57.2205 120.377 57.4719 121.566 57.4719C122.373 57.4719 123.104 57.3576 123.76 57.1291C124.43 56.8854 124.993 56.5426 125.451 56.1008C125.923 55.6437 126.281 55.0877 126.525 54.4326L132.717 55.3238C132.321 56.7863 131.605 58.066 130.569 59.1629C129.549 60.2445 128.261 61.09 126.707 61.6994C125.169 62.2936 123.409 62.5906 121.429 62.5906Z" fill="#EE46BC"/>
</svg>
